<?xml version="1.0" encoding="utf-8"?>
<!-- Generator: Adobe Illustrator 16.0.0, SVG Export Plug-In . SVG Version: 6.00 Build 0)  -->
<svg version="1.2" baseProfile="tiny" id="Layer_1" xmlns="http://www.w3.org/2000/svg" xmlns:xlink="http://www.w3.org/1999/xlink"
	 x="0px" y="0px" width="1100px" height="1040px" viewBox="0 0 1100 1040" xml:space="preserve">
<g>
	<path fill="#DA552F" d="M892.694,405.769c0,189.264-153.43,342.694-342.694,342.694c-189.264,0-342.695-153.431-342.695-342.694
		c0-189.265,153.432-342.694,342.695-342.694C739.265,63.074,892.694,216.504,892.694,405.769"/>
	<path fill="#FFFFFF" d="M595.693,234.422L595.693,234.422H430.057v342.693h68.539V474.309h97.098
		c66.241,0,119.942-53.701,119.942-119.943C715.636,288.122,661.935,234.422,595.693,234.422 M595.693,405.768L595.693,405.768
		l-97.098,0.001V302.961h97.098c28.389,0,51.402,23.013,51.402,51.402S624.082,405.768,595.693,405.768"/>
	<path fill="#DA552F" d="M46.543,976.926V862.694h52.479c24.397,0,37.684,16.486,37.684,36.172c0,19.514-13.45,35.999-37.684,35.999
		H70.434v42.061H46.543z M112.324,898.866c0-9.425-7.247-15.145-16.658-15.145H70.434v30.116h25.232
		C105.077,913.838,112.324,908.118,112.324,898.866"/>
	<path fill="#DA552F" d="M151.241,976.926v-83.28h21.355v10.939c5.89-7.069,15.822-12.953,25.917-12.953v20.856
		c-1.52-0.337-3.369-0.5-5.89-0.5c-7.068,0-16.493,4.033-20.027,9.254v55.684H151.241z"/>
	<path fill="#DA552F" d="M206.609,934.194c0-23.047,16.151-42.562,42.904-42.562c26.917,0,43.067,19.515,43.067,42.562
		s-16.15,42.731-43.067,42.731C222.761,976.926,206.609,957.241,206.609,934.194 M270.377,934.194
		c0-12.617-7.411-23.555-20.863-23.555c-13.301,0-20.698,10.938-20.698,23.555c0,12.788,7.397,23.718,20.698,23.718
		C262.966,957.912,270.377,946.982,270.377,934.194"/>
	<path fill="#DA552F" d="M364.472,976.926v-12.451c-6.397,8.075-15.138,12.451-25.069,12.451c-20.355,0-35.999-15.479-35.999-42.731
		c0-26.411,15.315-42.563,35.999-42.563c9.589,0,18.672,4.035,25.069,12.445v-41.383h21.534v114.231H364.472z M364.472,948.66
		v-28.768c-3.535-5.384-11.273-9.253-18.344-9.253c-12.272,0-20.684,9.589-20.684,23.555c0,14.129,8.411,23.717,20.684,23.717
		C353.198,957.911,360.937,954.042,364.472,948.66"/>
	<path fill="#DA552F" d="M462.1,976.926v-12.281c-5.547,6.056-15.301,12.281-28.589,12.281c-17.834,0-26.246-9.76-26.246-25.575
		v-57.705h21.357v49.296c0,11.271,5.89,14.97,14.971,14.97c8.247,0,14.81-4.539,18.507-9.251v-55.015h21.371v83.28H462.1z"/>
	<path fill="#DA552F" d="M499.511,934.194c0-24.898,18.164-42.562,43.068-42.562c16.658,0,26.754,7.232,32.136,14.638
		l-13.972,13.114c-3.863-5.719-9.753-8.745-17.15-8.745c-12.959,0-22.041,9.424-22.041,23.555c0,14.129,9.082,23.718,22.041,23.718
		c7.397,0,13.287-3.362,17.15-8.917l13.972,13.122c-5.382,7.406-15.478,14.809-32.136,14.809
		C517.675,976.926,499.511,959.262,499.511,934.194"/>
	<path fill="#DA552F" d="M593.085,954.55v-42.226h-13.452v-18.679h13.452V871.44h21.37v22.205h16.479v18.679h-16.479v36.507
		c0,5.211,2.685,9.081,7.397,9.081c3.191,0,6.231-1.178,7.396-2.52l4.548,16.314c-3.19,2.864-8.919,5.219-17.835,5.219
		C600.988,976.926,593.085,969.187,593.085,954.55"/>
	<polygon fill="#DA552F" points="767.789,976.926 767.789,927.632 714.79,927.632 714.79,976.926 690.913,976.926 690.913,862.694 
		714.79,862.694 714.79,906.77 767.789,906.77 767.789,862.694 791.843,862.694 791.843,976.926 	"/>
	<path fill="#DA552F" d="M868.295,976.926v-12.281c-5.549,6.056-15.303,12.281-28.59,12.281c-17.834,0-26.246-9.76-26.246-25.575
		v-57.705h21.357v49.296c0,11.271,5.89,14.97,14.971,14.97c8.247,0,14.809-4.539,18.508-9.251v-55.015h21.37v83.28H868.295z"/>
	<path fill="#DA552F" d="M965.744,976.926v-51.143c0-11.274-5.876-15.144-14.972-15.144c-8.411,0-14.795,4.712-18.505,9.424v56.862
		H910.91v-83.28h21.357v10.433c5.218-6.055,15.313-12.446,28.438-12.446c17.997,0,26.573,10.09,26.573,25.904v59.39H965.744z"/>
	<path fill="#DA552F" d="M1012.745,954.55v-42.226h-13.451v-18.679h13.451V871.44h21.37v22.205h16.479v18.679h-16.479v36.507
		c0,5.211,2.685,9.081,7.396,9.081c3.193,0,6.233-1.178,7.411-2.52l4.535,16.314c-3.191,2.864-8.919,5.219-17.836,5.219
		C1020.647,976.926,1012.745,969.187,1012.745,954.55"/>
</g>
</svg>
